HIERARCHY
ROOT hip
{
  OFFSET 0 0 0
  CHANNELS 6 Xposition Yposition Zposition Zrotation Yrotation Xrotation
  JOINT abdomen
  {
    OFFSET 0 20.6881 -0.73152
    CHANNELS 3 Zrotation Xrotation Yrotation
    JOINT chest
    {
      OFFSET 0 11.7043 -0.48768
      CHANNELS 3 Zrotation Xrotation Yrotation
      JOINT neck
      {
        OFFSET 0 22.1894 -2.19456
        CHANNELS 3 Zrotation Xrotation Yrotation
        JOINT head
        {
          OFFSET -0.24384 7.07133 1.2192
          CHANNELS 3 Zrotation Xrotation Yrotation
          JOINT leftEye
          {
            OFFSET 4.14528 8.04674 8.04672
            CHANNELS 3 Zrotation Xrotation Yrotation
            End Site
            {
              OFFSET 1 0 0
            }
          }
          JOINT rightEye
          {
            OFFSET -3.6576 8.04674 8.04672
            CHANNELS 3 Zrotation Xrotation Yrotation
            End Site
            {
              OFFSET 1 0 0
            }
          }
        }
      }
      JOINT rCollar
      {
        OFFSET -2.68224 19.2634 -4.8768
        CHANNELS 3 Zrotation Xrotation Yrotation
        JOINT rShldr
        {
          OFFSET -8.77824 -1.95073 1.46304
          CHANNELS 3 Zrotation Xrotation Yrotation
          JOINT rForeArm
          {
            OFFSET -28.1742 -1.7115 0.48768
            CHANNELS 3 Zrotation Xrotation Yrotation
            JOINT rHand
            {
              OFFSET -22.5879 0.773209 7.07136
              CHANNELS 3 Zrotation Xrotation Yrotation
              JOINT rThumb1
              {
                OFFSET -1.2192 -0.487915 3.41376
                CHANNELS 3 Zrotation Xrotation Yrotation
                JOINT rThumb2
                {
                  OFFSET -3.37035 -0.52449 3.41376
                  CHANNELS 3 Zrotation Xrotation Yrotation
                  End Site
                  {
                    OFFSET -1.78271 -1.18214 1.43049
                  }
                }
              }
              JOINT rIndex1
              {
                OFFSET -7.75947 0.938293 5.60832
                CHANNELS 3 Zrotation Xrotation Yrotation
                JOINT rIndex2
                {
                  OFFSET -2.54057 -0.884171 1.56538
                  CHANNELS 3 Zrotation Xrotation Yrotation
                  End Site
                  {
                    OFFSET -1.62519 -0.234802 1.16502
                  }
                }
              }
              JOINT rMid1
              {
                OFFSET -8.24714 1.18213 3.41376
                CHANNELS 3 Zrotation Xrotation Yrotation
                JOINT rMid2
                {
                  OFFSET -3.10165 -0.590103 1.0647
                  CHANNELS 3 Zrotation Xrotation Yrotation
                  End Site
                  {
                    OFFSET -2.48547 -0.328903 0.83742
                  }
                }
              }
              JOINT rRing1
              {
                OFFSET -8.82822 0.546677 1.51678
                CHANNELS 3 Zrotation Xrotation Yrotation
                JOINT rRing2
                {
                  OFFSET -2.60934 -0.819778 -0.0198488
                  CHANNELS 3 Zrotation Xrotation Yrotation
                  End Site
                  {
                    OFFSET -2.33842 -0.294052 0.168128
                  }
                }
              }
              JOINT rPinky1
              {
                OFFSET -8.27202 -0.0477905 -0.4584
                CHANNELS 3 Zrotation Xrotation Yrotation
                JOINT rPinky2
                {
                  OFFSET -1.82734 -0.647385 -0.700984
                  CHANNELS 3 Zrotation Xrotation Yrotation
                  End Site
                  {
                    OFFSET -1.69225 -0.51767 -0.607171
                  }
                }
              }
            }
          }
        }
      }
      JOINT lCollar
      {
        OFFSET 2.68224 19.2634 -4.8768
        CHANNELS 3 Zrotation Xrotation Yrotation
        JOINT lShldr
        {
          OFFSET 8.77824 -1.95073 1.46304
          CHANNELS 3 Zrotation Xrotation Yrotation
          JOINT lForeArm
          {
            OFFSET 28.1742 -1.7115 0.48768
            CHANNELS 3 Zrotation Xrotation Yrotation
            JOINT lHand
            {
              OFFSET 22.5879 0.773209 7.07136
              CHANNELS 3 Zrotation Xrotation Yrotation
              JOINT lThumb1
              {
                OFFSET 1.2192 -0.487915 3.41376
                CHANNELS 3 Zrotation Xrotation Yrotation
                JOINT lThumb2
                {
                  OFFSET 3.37035 -0.52449 3.41376
                  CHANNELS 3 Zrotation Xrotation Yrotation
                  End Site
                  {
                    OFFSET 1.78271 -1.18214 1.43049
                  }
                }
              }
              JOINT lIndex1
              {
                OFFSET 7.75947 0.938293 5.60832
                CHANNELS 3 Zrotation Xrotation Yrotation
                JOINT lIndex2
                {
                  OFFSET 2.54057 -0.884171 1.56538
                  CHANNELS 3 Zrotation Xrotation Yrotation
                  End Site
                  {
                    OFFSET 1.62519 -0.234802 1.16502
                  }
                }
              }
              JOINT lMid1
              {
                OFFSET 8.24714 1.18213 3.41376
                CHANNELS 3 Zrotation Xrotation Yrotation
                JOINT lMid2
                {
                  OFFSET 3.10165 -0.590103 1.0647
                  CHANNELS 3 Zrotation Xrotation Yrotation
                  End Site
                  {
                    OFFSET 2.48547 -0.328903 0.83742
                  }
                }
              }
              JOINT lRing1
              {
                OFFSET 8.82822 0.546677 1.51678
                CHANNELS 3 Zrotation Xrotation Yrotation
                JOINT lRing2
                {
                  OFFSET 2.60934 -0.819778 -0.0198488
                  CHANNELS 3 Zrotation Xrotation Yrotation
                  End Site
                  {
                    OFFSET 2.33842 -0.294052 0.168128
                  }
                }
              }
              JOINT lPinky1
              {
                OFFSET 8.27202 -0.0477905 -0.4584
                CHANNELS 3 Zrotation Xrotation Yrotation
                JOINT lPinky2
                {
                  OFFSET 1.82734 -0.647385 -0.700984
                  CHANNELS 3 Zrotation Xrotation Yrotation
                  End Site
                  {
                    OFFSET 1.69225 -0.51767 -0.607171
                  }
                }
              }
            }
          }
        }
      }
    }
  }
  JOINT rButtock
  {
    OFFSET -8.77824 4.35084 1.2192
    CHANNELS 3 Zrotation Xrotation Yrotation
    JOINT rThigh
    {
      OFFSET 0 -1.70687 -2.19456
      CHANNELS 3 Zrotation Xrotation Yrotation
      JOINT rShin
      {
        OFFSET 0 -36.8199 0.73152
        CHANNELS 3 Zrotation Xrotation Yrotation
        JOINT rFoot
        {
          OFFSET 0.73152 -45.1104 -5.12064
          CHANNELS 3 Zrotation Xrotation Yrotation
          End Site
          {
            OFFSET -1.1221 -3.69964 12.103
          }
        }
      }
    }
  }
  JOINT lButtock
  {
    OFFSET 8.77824 4.35084 1.2192
    CHANNELS 3 Zrotation Xrotation Yrotation
    JOINT lThigh
    {
      OFFSET 0 -1.70687 -2.19456
      CHANNELS 3 Zrotation Xrotation Yrotation
      JOINT lShin
      {
        OFFSET 0 -36.8199 0.73152
        CHANNELS 3 Zrotation Xrotation Yrotation
        JOINT lFoot
        {
          OFFSET -0.73152 -45.1104 -5.12064
          CHANNELS 3 Zrotation Xrotation Yrotation
          End Site
          {
            OFFSET 1.1221 -3.69964 12.103
          }
        }
      }
    }
  }
}
MOTION
Frames:	6
Frame Time:	0.00833333
49.3619 84.1089 -18.5688 0.0 0.0 0.0 -1.50368 -0.00293044 -0.0409975 -0.414512 0.000755754 -0.0717873 -3.49881e-14 7.95139e-16 2.98177e-16 -1.04359e-13 9.54166e-15 8.89872e-16 -0.0 0.0 0.0 -0.0 0.0 0.0 -1.73956e-14 3.88251e-19 2.48481e-16 -3.63516e-13 2.48481e-17 2.78299e-15 -6.27991e-12 1.88468e-12 1.11319e-13 -7.20012e-11 -1.88155e-12 4.96167e-13 -1.69815e-10 5.1024e-15 1.34537e-12 -2.93262e-10 6.36111e-15 2.32658e-12 -1.69809e-10 7.15625e-15 1.32629e-12 7.73091 5.47488 0.417314 -1.69816e-10 5.1684e-15 1.34537e-12 2.90554 0.965183 0.102902 -1.69809e-10 5.06901e-15 1.34537e-12 10.2786 0.731801 0.0259123 -1.6982e-10 7.95139e-15 1.3581e-12 2.22167 -0.733487 -0.20892 -1.75917e-14 3.88251e-19 -4.96962e-17 -3.66244e-13 -9.93923e-17 1.19271e-15 -6.30321e-12 -1.87732e-12 1.27222e-13 -7.19732e-11 1.87536e-12 4.89805e-13 -1.69803e-10 -4.83188e-15 1.35492e-12 -2.93229e-10 -3.18055e-15 2.34009e-12 -1.69809e-10 -5.1684e-15 1.36128e-12 -7.73091 5.47488 -0.417314 -1.69802e-10 -4.87022e-15 1.34856e-12 -2.90554 0.965183 -0.102902 -1.69802e-10 -4.96962e-15 1.34935e-12 -10.2786 0.731801 -0.0259123 -1.69795e-10 -1.98785e-15 1.33901e-12 -2.22167 -0.733487 0.20892 -2.03217e-16 0.0 -3.88251e-19 -0.63632 -1.92306 -0.00650436 -0.00920529 -2.07856 -0.0759914 -0.504433 3.99732 0.13917 2.03217e-16 0.0 3.88251e-19 -1.65036 -6.46948 0.152899 -0.00229146 6.15689 -0.0670355 0.526293 0.308403 -0.0661441
43.4308 82.2378 -24.886 -38.6894 -82.2581 40.888 0.305383 1.11729 1.05712 -0.28238 -0.952836 0.24409 -0.739762 -0.487959 2.93696 0.723215 -1.27647 6.03111 -0.0 0.0 0.0 -0.0 0.0 0.0 -2.99004e-14 -3.26506e-13 1.19787e-13 18.9749 19.0447 0.739006 -19.653 -17.3717 15.1624 0.023485 -3.40077 -0.47491 7.34026e-11 -9.22042e-10 -6.46688e-10 1.32652e-10 -1.59752e-09 -1.11656e-09 7.34071e-11 -9.22041e-10 -6.46707e-10 7.73091 5.47488 0.417314 7.3401e-11 -9.2204e-10 -6.46689e-10 2.90554 0.965183 0.102902 7.34073e-11 -9.2204e-10 -6.46688e-10 10.2786 0.731801 0.0259123 7.33987e-11 -9.22038e-10 -6.46678e-10 2.22167 -0.733487 -0.20892 -3.0067e-14 -3.26507e-13 1.19555e-13 -21.8114 19.4148 -1.02512 19.3919 -17.0885 -15.1591 -0.284362 -11.8776 1.5427 2.08711e-10 2.60628e-12 -3.03421e-11 3.59465e-10 3.13277e-12 -4.04275e-11 2.08704e-10 2.60639e-12 -3.03365e-11 -7.73091 5.47488 -0.417314 2.08712e-10 2.60676e-12 -3.0344e-11 -2.90554 0.965183 -0.102902 2.0871e-10 2.60626e-12 -3.03457e-11 -10.2786 0.731801 -0.0259123 2.08719e-10 2.60807e-12 -3.03555e-11 -2.22167 -0.733487 0.20892 -2.03217e-16 0.0 -3.88251e-19 1.01438 -7.73861 1.06658 0.030899 9.93834 0.12192 -0.889423 -2.56443 -2.35581 2.03217e-16 0.0 3.88251e-19 0.871032 -11.5417 1.74699 -0.000486901 17.107 -0.235057 0.982023 -3.97156 2.83513
43.4242 82.2371 -25.0418 -39.3117 -82.2137 41.4823 2.168 2.29482 2.21992 -0.131523 -1.95929 0.578266 -1.46892 -0.999419 6.0423 1.77777 -2.58281 12.4168 -0.0 0.0 0.0 -0.0 0.0 0.0 -4.43079e-14 -6.93393e-13 2.52267e-13 38.3532 39.1648 1.84804 -29.4914 -31.4629 35.5564 -0.0134288 -7.00058 -0.983324 3.41295e-10 -1.96625e-09 -1.38254e-09 6.02013e-10 -3.40682e-09 -2.38709e-09 3.41298e-10 -1.96625e-09 -1.38255e-09 7.73091 5.47488 0.417314 3.41292e-10 -1.96624e-09 -1.38254e-09 2.90554 0.965183 0.102902 3.41299e-10 -1.96624e-09 -1.38254e-09 10.2786 0.731801 0.0259123 3.41292e-10 -1.96624e-09 -1.38253e-09 2.22167 -0.733487 -0.20892 -4.44462e-14 -6.93394e-13 2.52106e-13 -43.9132 39.9039 -2.57901 29.1838 -30.9551 -35.3876 0.172102 -24.3933 3.40911 6.44877e-10 -1.24517e-11 -4.86271e-11 1.11094e-09 -2.48499e-11 -5.81272e-11 6.44868e-10 -1.24511e-11 -4.86221e-11 -7.73091 5.47488 -0.417314 6.44877e-10 -1.24506e-11 -4.86241e-11 -2.90554 0.965183 -0.102902 6.44873e-10 -1.24516e-11 -4.86285e-11 -10.2786 0.731801 -0.0259123 6.44884e-10 -1.24511e-11 -4.86378e-11 -2.22167 -0.733487 0.20892 -2.03217e-16 0.0 -3.88251e-19 2.99611 -13.8775 2.25078 -0.0228058 22.6418 0.354777 -1.925 -9.47114 -5.06056 2.03217e-16 0.0 3.88251e-19 3.84531 -16.866 3.5079 0.080802 28.6594 -0.446184 1.94205 -8.46754 5.96532
43.4397 82.234 -25.22 -39.9336 -82.1777 42.0989 3.79459 3.35287 3.25832 0.0134581 -2.85971 0.876836 -2.06983 -1.4485 8.8134 2.96233 -3.66012 18.1271 -0.0 0.0 0.0 -0.0 0.0 0.0 -5.491e-14 -9.7952e-13 3.58863e-13 54.4083 57.0793 3.85808 -29.5827 -35.9595 58.0295 -0.100966 -10.1995 -1.44506 5.59838e-10 -2.76614e-09 -1.94276e-09 9.8448e-10 -4.79257e-09 -3.35432e-09 5.59839e-10 -2.76614e-09 -1.94277e-09 7.73091 5.47488 0.417314 5.59834e-10 -2.76613e-09 -1.94276e-09 2.90554 0.965183 0.102902 5.59841e-10 -2.76613e-09 -1.94276e-09 10.2786 0.731801 0.0259123 5.59835e-10 -2.76613e-09 -1.94275e-09 2.22167 -0.733487 -0.20892 -5.50176e-14 -9.79521e-13 3.58766e-13 -61.7815 58.1346 -5.50016 29.4592 -35.4532 -57.5498 1.43516 -35.5172 5.56724 9.6574e-10 7.82851e-12 -9.37363e-11 1.66485e-09 9.40467e-12 -1.25963e-10 9.65731e-10 7.82952e-12 -9.37321e-11 -7.73091 5.47488 -0.417314 9.65741e-10 7.83004e-12 -9.37291e-11 -2.90554 0.965183 -0.102902 9.65734e-10 7.82873e-12 -9.37358e-11 -10.2786 0.731801 -0.0259123 9.65748e-10 7.82819e-12 -9.37446e-11 -2.22167 -0.733487 0.20892 -2.03217e-16 0.0 -3.88251e-19 5.00321 -19.3426 3.37426 -0.176362 33.9707 0.617562 -3.41775 -15.5626 -7.61889 2.03217e-16 0.0 3.88251e-19 6.81905 -21.6207 5.19771 0.248003 39.0056 -0.69578 3.21435 -12.4021 8.82475
43.4715 82.2283 -25.3571 -40.0805 -82.0884 42.2636 4.92123 4.11682 3.98106 0.121544 -3.49538 1.08544 -2.45523 -1.75627 10.7465 3.91422 -4.32733 22.1161 -0.0 0.0 0.0 -0.0 0.0 0.0 -5.59987e-14 -1.06375e-12 4.0075e-13 63.4085 69.5066 7.38844 -28.3412 -33.3631 72.6595 -0.192338 -12.3988 -1.77054 6.55007e-10 -2.95524e-09 -2.06391e-09 1.14971e-09 -5.11946e-09 -3.56329e-09 6.55008e-10 -2.95524e-09 -2.06392e-09 7.73091 5.47488 0.417314 6.55002e-10 -2.95523e-09 -2.06391e-09 2.90554 0.965183 0.102902 6.5501e-10 -2.95523e-09 -2.06391e-09 10.2786 0.731801 0.0259123 6.55004e-10 -2.95523e-09 -2.0639e-09 2.22167 -0.733487 -0.20892 -5.60698e-14 -1.06375e-12 4.007e-13 -70.6398 70.7609 -10.9861 28.309 -32.9909 -72.0577 3.01875 -43.2677 7.60192 9.98351e-10 1.16454e-10 -2.05906e-10 1.72488e-09 1.99252e-10 -3.19138e-10 9.98341e-10 1.16456e-10 -2.05903e-10 -7.73091 5.47488 -0.417314 9.98352e-10 1.16456e-10 -2.05896e-10 -2.90554 0.965183 -0.102902 9.98343e-10 1.16455e-10 -2.05904e-10 -10.2786 0.731801 -0.0259123 9.98358e-10 1.16454e-10 -2.05912e-10 -2.22167 -0.733487 0.20892 -2.03217e-16 0.0 -3.88251e-19 6.57304 -23.1489 4.19648 -0.367393 41.8647 0.859827 -4.79216 -19.7423 -9.52057 2.03217e-16 0.0 3.88251e-19 9.14504 -25.0083 6.48876 0.446866 46.3379 -0.935072 4.31533 -15.0604 10.824
43.5013 82.2237 -25.4999 -40.3612 -82.0341 42.5458 5.38869 4.47089 4.25601 0.167516 -3.76191 1.16675 -2.58437 -1.87702 11.505 4.3049 -4.53007 23.6759 -0.0 0.0 0.0 -0.0 0.0 0.0 -3.73993e-14 -7.81975e-13 3.37393e-13 65.3105 74.3303 10.4786 -28.2543 -31.2014 77.3995 -0.232842 -13.1974 -1.89084 5.39517e-10 -2.15307e-09 -1.48555e-09 9.44518e-10 -3.72832e-09 -2.56443e-09 5.3952e-10 -2.15307e-09 -1.48557e-09 7.73091 5.47488 0.417314 5.39514e-10 -2.15306e-09 -1.48555e-09 2.90554 0.965183 0.102902 5.39523e-10 -2.15306e-09 -1.48555e-09 10.2786 0.731801 0.0259123 5.39514e-10 -2.15306e-09 -1.48554e-09 2.22167 -0.733487 -0.20892 -3.74181e-14 -7.81974e-13 3.37376e-13 -70.8756 75.6888 -16.355 28.2274 -30.9108 -76.8304 3.88896 -46.4142 8.62175 5.99787e-10 3.4007e-10 -4.04054e-10 1.04578e-09 5.91694e-10 -6.75253e-10 5.99778e-10 3.40071e-10 -4.04053e-10 -7.73091 5.47488 -0.417314 5.99787e-10 3.40071e-10 -4.04045e-10 -2.90554 0.965183 -0.102902 5.99778e-10 3.4007e-10 -4.04052e-10 -10.2786 0.731801 -0.0259123 5.99792e-10 3.40069e-10 -4.04059e-10 -2.22167 -0.733487 0.20892 -2.03217e-16 0.0 -3.88251e-19 7.28286 -24.6537 4.48353 -0.468026 44.949 0.973671 -5.3873 -21.3427 -10.2615 2.03217e-16 0.0 3.88251e-19 10.2538 -26.5291 7.09073 0.559679 49.4586 -1.05903 4.73166 -15.9857 11.483
